<svg width="40" height="40" viewBox="0 0 40 40" fill="none" xmlns="http://www.w3.org/2000/svg">
<path opacity="0.9" d="M17.0587 18.6338C16.6955 18.603 16.3315 18.6827 16.0143 18.8623C15.6972 19.0419 15.4416 19.313 15.2811 19.6403C15.1206 19.9675 15.0627 20.3356 15.1148 20.6963C15.167 21.0571 15.3268 21.3936 15.5734 21.662C15.8201 21.9304 16.142 22.1181 16.497 22.2005C16.852 22.2829 17.2237 22.2562 17.5633 22.1238C17.9029 21.9915 18.1947 21.7597 18.4004 21.4588C18.6061 21.158 18.7162 20.802 18.7162 20.4375C18.7259 20.2102 18.6907 19.9832 18.6127 19.7695C18.5346 19.5558 18.4152 19.3596 18.2613 19.1921C18.1074 19.0246 17.9219 18.889 17.7156 18.7932C17.5092 18.6974 17.286 18.6432 17.0587 18.6338ZM22.9899 18.6338C22.6268 18.603 22.2628 18.6827 21.9456 18.8623C21.6284 19.0419 21.3729 19.313 21.2124 19.6403C21.0519 19.9675 20.9939 20.3356 21.0461 20.6963C21.0982 21.0571 21.2581 21.3936 21.5047 21.662C21.7513 21.9304 22.0732 22.1181 22.4282 22.2005C22.7833 22.2829 23.1549 22.2562 23.4946 22.1238C23.8342 21.9915 24.1259 21.7597 24.3316 21.4588C24.5373 21.158 24.6474 20.802 24.6474 20.4375C24.6572 20.2102 24.622 19.9832 24.5439 19.7695C24.4659 19.5558 24.3465 19.3596 24.1925 19.1921C24.0386 19.0246 23.8532 18.889 23.6468 18.7932C23.4405 18.6974 23.2173 18.6432 22.9899 18.6338Z" fill="white"/>
<path opacity="0.9" d="M30.8875 5H9.11251C8.67395 5.00098 8.23989 5.08836 7.83511 5.25713C7.43033 5.42591 7.06276 5.67278 6.75341 5.98364C6.44406 6.2945 6.19898 6.66326 6.03218 7.06886C5.86537 7.47446 5.78011 7.90894 5.78126 8.3475V30.3175C5.78011 30.7561 5.86537 31.1905 6.03218 31.5961C6.19898 32.0017 6.44406 32.3705 6.75341 32.6814C7.06276 32.9922 7.43033 33.2391 7.83511 33.4079C8.23989 33.5766 8.67395 33.664 9.11251 33.665H27.54L26.6788 30.6588L28.7588 32.5925L30.725 34.4125L34.2188 37.5V8.3475C34.2199 7.90894 34.1346 7.47446 33.9678 7.06886C33.801 6.66326 33.556 6.2945 33.2466 5.98364C32.9373 5.67278 32.5697 5.42591 32.1649 5.25713C31.7601 5.08836 31.3261 5.00098 30.8875 5ZM24.615 26.2225C24.615 26.2225 24.03 25.5237 23.5425 24.9062C24.7204 24.6289 25.7622 23.944 26.4838 22.9725C25.899 23.3616 25.2721 23.6833 24.615 23.9313C23.8591 24.2539 23.0684 24.4884 22.2588 24.63C20.867 24.8862 19.4397 24.8807 18.05 24.6138C17.2341 24.4541 16.4346 24.2202 15.6613 23.915C15.2536 23.7583 14.8573 23.5737 14.475 23.3625C14.4263 23.33 14.3775 23.3137 14.3288 23.2812C14.3043 23.2691 14.2823 23.2526 14.2638 23.2325C14.1079 23.1476 13.956 23.0554 13.8088 22.9562C14.5042 23.9074 15.5101 24.5856 16.6525 24.8738C16.165 25.4913 15.5638 26.2225 15.5638 26.2225C14.5985 26.2485 13.6416 26.0368 12.7773 25.6061C11.9131 25.1754 11.1679 24.5389 10.6075 23.7525C10.6603 20.4582 11.4604 17.2188 12.9475 14.2788C14.2562 13.2509 15.8517 12.6547 17.5138 12.5725L17.6763 12.7675C16.1126 13.1545 14.6534 13.8813 13.4025 14.8962C13.4025 14.8962 13.76 14.7013 14.3613 14.425C15.5293 13.8918 16.7742 13.5463 18.05 13.4012C18.141 13.3824 18.2334 13.3715 18.3263 13.3687C19.4152 13.2269 20.5172 13.216 21.6088 13.3362C23.3253 13.5323 24.9869 14.0622 26.5 14.8962C25.3126 13.9297 23.9334 13.2262 22.4538 12.8325L22.6813 12.5725C24.3433 12.6547 25.9388 13.2509 27.2475 14.2788C28.7346 17.2188 29.5348 20.4582 29.5875 23.7525C29.0226 24.5381 28.2742 25.1738 27.4076 25.6042C26.541 26.0347 25.5823 26.2469 24.615 26.2225Z" fill="white"/>
</svg>
