<svg width="40" height="40" viewBox="0 0 40 40" fill="none" xmlns="http://www.w3.org/2000/svg">
<path opacity="0.9" d="M20 2.44482C10.3046 2.44482 2.44482 10.3048 2.44482 20C2.44482 29.6954 10.3048 37.555 20 37.555C29.6954 37.555 37.555 29.6952 37.555 20C37.555 10.3048 29.6954 2.44482 20 2.44482ZM29.0632 25.2872C29.0632 26.2566 28.2476 27.0496 27.2506 27.0496H12.7492C11.7522 27.0496 10.9366 26.2566 10.9366 25.2872L10.945 16.5814L19.7828 21.2684C19.8498 21.3037 19.9243 21.3221 20 21.3221C20.0757 21.3221 20.1503 21.3037 20.2172 21.2684L29.0632 16.577V25.2872ZM20 19.8666L10.9458 14.6966C10.9546 13.7346 11.758 12.9506 12.749 12.9506H27.2508C28.2404 12.9506 29.0516 13.7318 29.0634 14.6918L20 19.8666Z" fill="white"/>
</svg>
